Coordinates
version=1
nRows=37
nColumns=38
inDegrees=no

Units are S.I. units (second, meters, Newtons, ...)
If the header above contains a line with 'inDegrees', this indicates whether rotational values are in degrees (yes) or radians (no).

endheader
time	pelvis_tilt	pelvis_list	pelvis_rotation	pelvis_tx	pelvis_ty	pelvis_tz	hip_flexion_r	hip_adduction_r	hip_rotation_r	knee_angle_r	ankle_angle_r	subtalar_angle_r	mtp_angle_r	hip_flexion_l	hip_adduction_l	hip_rotation_l	knee_angle_l	ankle_angle_l	subtalar_angle_l	mtp_angle_l	lumbar_extension	lumbar_bending	lumbar_rotation	arm_flex_r	arm_add_r	arm_rot_r	elbow_flex_r	pro_sup_r	wrist_flex_r	wrist_dev_r	arm_flex_l	arm_add_l	arm_rot_l	elbow_flex_l	pro_sup_l	wrist_flex_l	wrist_dev_l
1.6	0.590169	1.37958	1.06869	0.674864	1.52163	1.03465	0.45398	0.0132294	-0.255846	0	-0.242044	0	0	-0.0878887	-0.0490893	-0.267195	0.142044	-0.056964	0	0	-0.093761	0.00999532	-0.0755471	-0.0533738	-0.406619	0.573264	0.54332	0.808512	0	0	-0.0464452	-0.583415	0.142685	0.943958	1.37573	0	0
1.61	0.575383	1.378	1.08542	0.676128	1.53455	1.03217	0.459831	0.0188047	-0.261473	0	-0.231458	0	0	-0.0938559	-0.0517342	-0.267306	0.152524	-0.0497191	0	0	-0.091306	0.00688223	-0.077372	-0.0529542	-0.402996	0.574686	0.540829	0.810472	0	0	-0.0418909	-0.588689	0.15156	0.942284	1.37464	0	0
1.62	0.568719	1.3783	1.09349	0.677275	1.54753	1.02997	0.464288	0.0246192	-0.258997	0	-0.223799	0	0	-0.101068	-0.0548227	-0.267978	0.165452	-0.045306	0	0	-0.0924491	0.0047245	-0.079264	-0.051047	-0.399967	0.57648	0.539049	0.810718	0	0	-0.0386815	-0.591925	0.156148	0.940778	1.37545	0	0
1.63	0.570392	1.37952	1.09337	0.678228	1.56064	1.02812	0.468657	0.0307553	-0.251547	0	-0.220547	0	0	-0.108814	-0.0588622	-0.268206	0.180239	-0.0433003	0	0	-0.0957646	0.00431968	-0.0812785	-0.0485072	-0.397374	0.578066	0.53751	0.810302	0	0	-0.0360026	-0.592905	0.158748	0.938073	1.3758	0	0
1.64	0.581465	1.38113	1.0835	0.679138	1.57393	1.02662	0.472192	0.0383398	-0.238457	0	-0.218422	0	0	-0.116626	-0.0647797	-0.269581	0.19888	-0.0406881	0	0	-0.10069	0.00581963	-0.0827188	-0.0452181	-0.394651	0.580343	0.535171	0.809415	0	0	-0.0337095	-0.592775	0.161416	0.934313	1.37612	0	0
1.65	0.598687	1.38304	1.06753	0.680006	1.58758	1.02534	0.473783	0.0471368	-0.222217	0	-0.217545	0	0	-0.124678	-0.0720221	-0.271174	0.219852	-0.0382174	0	0	-0.106129	0.00868401	-0.083796	-0.0423214	-0.391967	0.58312	0.532758	0.808109	0	0	-0.0323589	-0.591505	0.163941	0.929399	1.37676	0	0
1.66	0.627203	1.38663	1.04035	0.68069	1.60173	1.02442	0.473044	0.0571078	-0.207434	0.0146956	-0.21373	0	0	-0.134925	-0.0805178	-0.276445	0.24294	-0.0346718	0	0	-0.113555	0.0134314	-0.0843914	-0.0388237	-0.390218	0.589798	0.529483	0.803013	0	0	-0.0313782	-0.588792	0.167463	0.922502	1.37835	0	0
1.67	0.655026	1.38962	1.01557	0.681293	1.61648	1.02348	0.471246	0.0666504	-0.198911	0.0516892	-0.209002	0	0	-0.143777	-0.0892924	-0.279939	0.267305	-0.0358857	0	0	-0.118851	0.0186056	-0.0863984	-0.0371654	-0.388167	0.596624	0.526211	0.796804	0	0	-0.0328419	-0.585372	0.170477	0.914811	1.38065	0	0
1.68	0.68413	1.3917	0.991185	0.68174	1.63168	1.02259	0.46793	0.0764985	-0.191149	0.0806368	-0.212666	0	0	-0.15063	-0.099193	-0.28138	0.294657	-0.0405679	0	0	-0.122403	0.0250506	-0.0895391	-0.0365507	-0.386033	0.604447	0.521981	0.78977	0	0	-0.0356068	-0.58085	0.173941	0.905476	1.38371	0	0
1.69	0.702646	1.39139	0.97805	0.682109	1.64704	1.02168	0.464595	0.0845739	-0.176678	0.0942107	-0.236484	0	0	-0.151916	-0.109031	-0.279385	0.32617	-0.0484452	0	0	-0.122204	0.0316812	-0.0927937	-0.0365	-0.38335	0.61338	0.515739	0.78165	0	0	-0.0389526	-0.57467	0.177593	0.894051	1.38609	0	0
1.7	0.703554	1.38869	0.982521	0.682451	1.66243	1.02073	0.464472	0.0889842	-0.161982	0.102236	-0.275738	0	0	-0.146033	-0.117515	-0.273717	0.363844	-0.0597233	0	0	-0.116974	0.0371351	-0.0957373	-0.0368315	-0.379959	0.624969	0.507137	0.769885	0	0	-0.0424272	-0.56747	0.182627	0.879509	1.38859	0	0
1.71	0.699602	1.38555	0.991756	0.682827	1.67778	1.01999	0.465811	0.0911	-0.155613	0.116049	-0.299248	0	0	-0.135757	-0.125567	-0.266058	0.408717	-0.0723424	0	0	-0.110544	0.0419566	-0.0974522	-0.0382817	-0.376203	0.634452	0.49872	0.759121	0	0	-0.0453576	-0.559868	0.189131	0.863574	1.39084	0	0
1.72	0.698957	1.38162	0.997462	0.68323	1.69296	1.0196	0.467817	0.0927727	-0.156552	0.138326	-0.300936	0	0	-0.121267	-0.134819	-0.257487	0.460435	-0.0894912	0	0	-0.103433	0.0479946	-0.0976749	-0.039727	-0.372509	0.643908	0.489524	0.746371	0	0	-0.0475769	-0.55118	0.197085	0.846254	1.39178	0	0
1.73	0.708967	1.37697	0.99246	0.683565	1.70774	1.01968	0.47108	0.0952321	-0.157472	0.171535	-0.279991	0	0	-0.103245	-0.146436	-0.246177	0.517382	-0.113268	0	0	-0.0973256	0.0570598	-0.0971872	-0.039614	-0.369502	0.655188	0.479549	0.728654	0	0	-0.0492605	-0.540896	0.205101	0.827787	1.39163	0	0
1.74	0.73445	1.3726	0.97142	0.683798	1.72195	1.02027	0.475725	0.0995124	-0.156448	0.215921	-0.251028	0	0	-0.0834615	-0.160235	-0.231005	0.576761	-0.140305	0	0	-0.0955165	0.0697276	-0.0964934	-0.0375349	-0.368073	0.66562	0.471765	0.711826	0	0	-0.0514713	-0.528927	0.209701	0.810384	1.39086	0	0
1.75	0.763679	1.36753	0.945626	0.684017	1.73562	1.02098	0.483046	0.105014	-0.156095	0.265403	-0.222749	0	0	-0.0604297	-0.1744	-0.210734	0.636945	-0.170459	0	0	-0.0955743	0.0842266	-0.0955747	-0.0343245	-0.367841	0.673307	0.46641	0.695369	0	0	-0.0551531	-0.516351	0.211454	0.794953	1.3887	0	0
1.76	0.786933	1.36158	0.924823	0.684391	1.74896	1.02143	0.490248	0.11139	-0.157486	0.30802	-0.198835	0	0	-0.0336547	-0.187374	-0.18622	0.697974	-0.201462	0	0	-0.0949862	0.0981458	-0.0944996	-0.0313164	-0.368183	0.679057	0.463361	0.680569	0	0	-0.0611984	-0.504651	0.211623	0.782292	1.38357	0	0
1.77	0.806086	1.35586	0.90829	0.684969	1.76215	1.02157	0.492712	0.11853	-0.161392	0.336396	-0.180865	0	0	-0.004501	-0.19916	-0.158951	0.760884	-0.230195	0	0	-0.0940748	0.110336	-0.0942261	-0.0294649	-0.368121	0.681854	0.462756	0.669252	0	0	-0.0698807	-0.495264	0.211366	0.77335	1.37509	0	0
1.78	0.821481	1.35114	0.89628	0.685606	1.77535	1.02145	0.489539	0.125305	-0.169978	0.352473	-0.163981	0	0	0.0258979	-0.209379	-0.131493	0.824484	-0.261967	0	0	-0.092398	0.120142	-0.0955218	-0.0288491	-0.367571	0.683445	0.463887	0.6594	0	0	-0.0808615	-0.488474	0.212378	0.767067	1.36383	0	0
1.79	0.831285	1.34847	0.890557	0.686115	1.78858	1.02121	0.48139	0.130117	-0.180534	0.360603	-0.148362	0	0	0.056319	-0.216822	-0.10665	0.886503	-0.297027	0	0	-0.0909814	0.126522	-0.0977528	-0.0294614	-0.366737	0.684108	0.466822	0.650927	0	0	-0.0925036	-0.48406	0.215897	0.762465	1.35127	0	0
1.8	0.836079	1.3483	0.889788	0.686544	1.80179	1.0211	0.469134	0.132924	-0.18899	0.36401	-0.13337	0	0	0.0853913	-0.221187	-0.0849931	0.944745	-0.332261	0	0	-0.090694	0.129507	-0.0996997	-0.0306448	-0.36538	0.684264	0.470086	0.643364	0	0	-0.102981	-0.481731	0.223569	0.757605	1.33873	0	0
1.81	0.838954	1.35043	0.890178	0.687047	1.81489	1.02131	0.45309	0.134664	-0.194143	0.363191	-0.11974	0	0	0.112141	-0.223341	-0.0669703	0.997932	-0.357578	0	0	-0.0923585	0.129642	-0.100445	-0.0314258	-0.3631	0.684777	0.472407	0.636726	0	0	-0.111642	-0.48115	0.234527	0.751926	1.32678	0	0
1.82	0.841095	1.35377	0.890024	0.687713	1.8279	1.02193	0.434678	0.13634	-0.197102	0.358933	-0.107564	0	0	0.136681	-0.22451	-0.053065	1.04565	-0.364139	0	0	-0.0954214	0.128199	-0.0989895	-0.0321082	-0.360158	0.685397	0.473716	0.629993	0	0	-0.117875	-0.481932	0.249612	0.744661	1.31569	0	0
1.83	0.844202	1.35737	0.886591	0.688469	1.84086	1.02291	0.415485	0.139044	-0.199393	0.354506	-0.0969998	0	0	0.158995	-0.225518	-0.0436118	1.0883	-0.348881	0	0	-0.0992239	0.126761	-0.0944094	-0.0330521	-0.357679	0.685232	0.474736	0.621945	0	0	-0.122011	-0.482487	0.267485	0.735322	1.30615	0	0
1.84	0.961585	1.33653	0.757134	0.689303	1.85241	1.02866	0.413014	0.15369	-0.390086	0.385324	-0.135088	0	0	0.180323	-0.267517	-0.0434502	1.12069	-0.318797	0	0	-0.116084	0.168843	-0.0642708	-0.0187637	-0.36251	0.700328	0.45717	0.601152	0	0	-0.0930651	-0.45887	0.30184	0.686068	1.30413	0	0
1.85	0.853399	1.36454	0.870656	0.690178	1.86659	1.0259	0.377853	0.147205	-0.197929	0.347731	-0.0836481	0	0	0.199228	-0.227251	-0.0356767	1.1609	-0.268919	0	0	-0.107231	0.124577	-0.0777603	-0.0337937	-0.355461	0.693513	0.474513	0.593968	0	0	-0.12463	-0.483138	0.31328	0.710161	1.28662	0	0
1.86	0.859395	1.36922	0.859959	0.690962	1.87933	1.02788	0.357481	0.150821	-0.193976	0.342547	-0.0754824	0	0	0.217261	-0.226788	-0.0351422	1.19007	-0.232941	0	0	-0.112302	0.122976	-0.0696554	-0.0334283	-0.353666	0.694214	0.472341	0.589343	0	0	-0.126965	-0.481535	0.330342	0.696588	1.28174	0	0
1.87	0.86718	1.37481	0.847089	0.691711	1.89196	1.03013	0.334896	0.153854	-0.188044	0.334566	-0.0713562	0	0	0.233683	-0.225155	-0.0360476	1.21358	-0.197084	0	0	-0.118642	0.12088	-0.0615262	-0.0330244	-0.352565	0.694477	0.471273	0.58388	0	0	-0.12921	-0.479477	0.345872	0.682486	1.27981	0	0
1.88	0.873443	1.38078	0.835584	0.692352	1.90453	1.03251	0.311451	0.155867	-0.181956	0.325485	-0.0695933	0	0	0.249383	-0.222306	-0.0380804	1.23079	-0.167615	0	0	-0.12497	0.118291	-0.0546424	-0.0321291	-0.351998	0.695649	0.470449	0.581116	0	0	-0.133349	-0.475994	0.355197	0.668753	1.27878	0	0
1.89	0.878747	1.38764	0.826039	0.692918	1.917	1.03498	0.287609	0.156028	-0.177488	0.317498	-0.068635	0	0	0.264199	-0.217982	-0.0401945	1.24158	-0.140995	0	0	-0.131816	0.114902	-0.0496286	-0.0309435	-0.351459	0.696879	0.469837	0.57933	0	0	-0.138424	-0.472471	0.361143	0.655863	1.27631	0	0
1.9	0.880828	1.39459	0.820693	0.693436	1.92929	1.03745	0.263805	0.154992	-0.173519	0.308756	-0.0684761	0	0	0.279305	-0.212715	-0.0422905	1.24636	-0.119106	0	0	-0.138448	0.111089	-0.0462813	-0.0296697	-0.350961	0.697096	0.469492	0.577956	0	0	-0.143979	-0.46896	0.364736	0.643624	1.27171	0	0
1.91	0.882271	1.40184	0.816034	0.693892	1.94147	1.03995	0.239275	0.153276	-0.170878	0.298343	-0.0696544	0	0	0.293461	-0.206651	-0.0440995	1.24527	-0.10064	0	0	-0.145344	0.106975	-0.0436447	-0.0282401	-0.350933	0.69738	0.469721	0.578105	0	0	-0.150265	-0.465208	0.365788	0.632733	1.26372	0	0
1.92	0.881727	1.40865	0.812805	0.694286	1.95359	1.04235	0.2157	0.15126	-0.170541	0.287549	-0.072206	0	0	0.307134	-0.20034	-0.046435	1.23888	-0.0841407	0	0	-0.151514	0.102985	-0.041008	-0.0271648	-0.351861	0.698141	0.470824	0.579693	0	0	-0.157166	-0.461268	0.365625	0.622925	1.25342	0	0
1.93	0.87816	1.41507	0.81268	0.694651	1.96563	1.04463	0.19281	0.14884	-0.171585	0.275665	-0.0758388	0	0	0.320606	-0.193733	-0.0495233	1.22721	-0.069211	0	0	-0.156877	0.0988744	-0.0389382	-0.026522	-0.353182	0.698229	0.472544	0.582136	0	0	-0.164406	-0.457742	0.365155	0.614259	1.24174	0	0
1.94	0.869998	1.42185	0.817237	0.695051	1.97762	1.04675	0.169622	0.14531	-0.173112	0.264733	-0.0791686	0	0	0.333225	-0.186255	-0.0532392	1.21079	-0.0553623	0	0	-0.161946	0.0937327	-0.0372484	-0.0265339	-0.354678	0.697407	0.475421	0.586105	0	0	-0.172048	-0.455481	0.364953	0.607768	1.22927	0	0
1.95	0.859483	1.42831	0.823778	0.695445	1.98952	1.04873	0.147911	0.141444	-0.175084	0.255255	-0.0824314	0	0	0.345018	-0.178691	-0.0577346	1.18953	-0.0419067	0	0	-0.167055	0.088477	-0.0352496	-0.026859	-0.356611	0.695475	0.479189	0.590802	0	0	-0.179301	-0.453748	0.36515	0.602604	1.21671	0	0
1.96	0.84408	1.43422	0.834806	0.695821	2.0014	1.05048	0.126335	0.137374	-0.178705	0.242373	-0.0871013	0	0	0.356003	-0.170981	-0.0631032	1.16292	-0.0295337	0	0	-0.171168	0.0829954	-0.0332044	-0.027627	-0.358722	0.692732	0.483273	0.596029	0	0	-0.186893	-0.45205	0.364493	0.598657	1.20385	0	0
